<svg width="1200" height="300" viewBox="0 0 1200 300" xmlns="http://www.w3.org/2000/svg">
  <title>Pegboard Background</title>
  <!-- Background -->
  <rect x="0" y="0" width="1200" height="300" fill="#e6d8c3" />
  <!-- Pegboard Holes -->
  <g fill="#d1c4a8">
    <circle cx="50" cy="50" r="5" />
    <circle cx="150" cy="50" r="5" />
    <circle cx="250" cy="50" r="5" />
    <circle cx="350" cy="50" r="5" />
    <circle cx="450" cy="50" r="5" />
    <circle cx="550" cy="50" r="5" />
    <circle cx="650" cy="50" r="5" />
    <circle cx="750" cy="50" r="5" />
    <circle cx="850" cy="50" r="5" />
    <circle cx="950" cy="50" r="5" />
    <circle cx="1050" cy="50" r="5" />
    <circle cx="1150" cy="50" r="5" />
    <circle cx="50" cy="150" r="5" />
    <circle cx="150" cy="150" r="5" />
    <circle cx="250" cy="150" r="5" />
    <circle cx="350" cy="150" r="5" />
    <circle cx="450" cy="150" r="5" />
    <circle cx="550" cy="150" r="5" />
    <circle cx="650" cy="150" r="5" />
    <circle cx="750" cy="150" r="5" />
    <circle cx="850" cy="150" r="5" />
    <circle cx="950" cy="150" r="5" />
    <circle cx="1050" cy="150" r="5" />
    <circle cx="1150" cy="150" r="5" />
    <circle cx="50" cy="250" r="5" />
    <circle cx="150" cy="250" r="5" />
    <circle cx="250" cy="250" r="5" />
    <circle cx="350" cy="250" r="5" />
    <circle cx="450" cy="250" r="5" />
    <circle cx="550" cy="250" r="5" />
    <circle cx="650" cy="250" r="5" />
    <circle cx="750" cy="250" r="5" />
    <circle cx="850" cy="250" r="5" />
    <circle cx="950" cy="250" r="5" />
    <circle cx="1050" cy="250" r="5" />
    <circle cx="1150" cy="250" r="5" />
  </g>
  <!-- Blue Square -->
  <rect x="100" y="100" width="100" height="100" fill="#36c5f0" />
  <!-- Red Circle -->
  <circle cx="150" cy="150" r="20" fill="#e01e5a" />
</svg>